<mxfile host="app.diagrams.net" modified="2024-04-09T21:03:58.382Z" agent="Mozilla/5.0 (Windows NT 10.0; Win64; x64) AppleWebKit/537.36 (KHTML, like Gecko) Chrome/123.0.0.0 Safari/537.36" etag="nbUsJTKNeWsBELDyDWUo" version="24.2.3" type="google">
  <diagram id="C5RBs43oDa-KdzZeNtuy" name="Page-1">
    <mxGraphModel grid="1" page="1" gridSize="11" guides="1" tooltips="1" connect="1" arrows="1" fold="1" pageScale="1" pageWidth="827" pageHeight="1169" math="0" shadow="0">
      <root>
        <mxCell id="WIyWlLk6GJQsqaUBKTNV-0" />
        <mxCell id="WIyWlLk6GJQsqaUBKTNV-1" parent="WIyWlLk6GJQsqaUBKTNV-0" />
        <mxCell id="OuwU9BR3Q6oiOXGN5wN--25" style="edgeStyle=orthogonalEdgeStyle;rounded=0;orthogonalLoop=1;jettySize=auto;html=1;exitX=0.5;exitY=1;exitDx=0;exitDy=0;entryX=0.5;entryY=0;entryDx=0;entryDy=0;strokeWidth=3;" edge="1" parent="WIyWlLk6GJQsqaUBKTNV-1" source="OuwU9BR3Q6oiOXGN5wN--1" target="OuwU9BR3Q6oiOXGN5wN--6">
          <mxGeometry relative="1" as="geometry" />
        </mxCell>
        <mxCell id="OuwU9BR3Q6oiOXGN5wN--1" value="&lt;font style=&quot;font-size: 24px;&quot;&gt;&lt;b&gt;inicio&lt;/b&gt;&lt;/font&gt;" style="ellipse;whiteSpace=wrap;html=1;fillColor=#f8cecc;strokeColor=#b85450;strokeWidth=3;" vertex="1" parent="WIyWlLk6GJQsqaUBKTNV-1">
          <mxGeometry x="150" y="-4620" width="120" height="60" as="geometry" />
        </mxCell>
        <mxCell id="OuwU9BR3Q6oiOXGN5wN--15" style="edgeStyle=orthogonalEdgeStyle;rounded=0;orthogonalLoop=1;jettySize=auto;html=1;exitX=1;exitY=0.5;exitDx=0;exitDy=0;strokeWidth=3;" edge="1" parent="WIyWlLk6GJQsqaUBKTNV-1" source="OuwU9BR3Q6oiOXGN5wN--6">
          <mxGeometry relative="1" as="geometry">
            <mxPoint x="330" y="-4489.333333333333" as="targetPoint" />
          </mxGeometry>
        </mxCell>
        <mxCell id="OuwU9BR3Q6oiOXGN5wN--6" value="&lt;b&gt;&lt;font style=&quot;font-size: 20px;&quot;&gt;saida&lt;/font&gt;&lt;/b&gt;" style="shape=manualInput;whiteSpace=wrap;html=1;fillColor=#d5e8d4;strokeColor=#82b366;strokeWidth=5;" vertex="1" parent="WIyWlLk6GJQsqaUBKTNV-1">
          <mxGeometry x="150" y="-4530" width="120" height="80" as="geometry" />
        </mxCell>
        <mxCell id="OuwU9BR3Q6oiOXGN5wN--18" style="edgeStyle=orthogonalEdgeStyle;rounded=0;orthogonalLoop=1;jettySize=auto;html=1;exitX=1;exitY=0.5;exitDx=0;exitDy=0;exitPerimeter=0;strokeWidth=3;endSize=4;" edge="1" parent="WIyWlLk6GJQsqaUBKTNV-1" source="OuwU9BR3Q6oiOXGN5wN--12">
          <mxGeometry relative="1" as="geometry">
            <mxPoint x="300" y="-4350" as="targetPoint" />
            <Array as="points">
              <mxPoint x="530" y="-4490" />
              <mxPoint x="530" y="-4350" />
            </Array>
          </mxGeometry>
        </mxCell>
        <mxCell id="OuwU9BR3Q6oiOXGN5wN--12" value="&lt;font size=&quot;1&quot; style=&quot;&quot;&gt;&lt;b style=&quot;font-size: 18px;&quot;&gt;saldo inicial: &quot;+&amp;nbsp;&lt;/b&gt;&lt;/font&gt;&lt;div&gt;&lt;font size=&quot;1&quot; style=&quot;&quot;&gt;&lt;b style=&quot;font-size: 18px;&quot;&gt;saldo&lt;/b&gt;&lt;/font&gt;&lt;/div&gt;" style="shape=display;whiteSpace=wrap;html=1;fillColor=#fff2cc;strokeColor=#d6b656;strokeWidth=5;" vertex="1" parent="WIyWlLk6GJQsqaUBKTNV-1">
          <mxGeometry x="330" y="-4540" width="180" height="100" as="geometry" />
        </mxCell>
        <mxCell id="OuwU9BR3Q6oiOXGN5wN--22" style="edgeStyle=orthogonalEdgeStyle;rounded=0;orthogonalLoop=1;jettySize=auto;html=1;exitX=0.5;exitY=1;exitDx=0;exitDy=0;entryX=0.5;entryY=0;entryDx=0;entryDy=0;strokeWidth=3;" edge="1" parent="WIyWlLk6GJQsqaUBKTNV-1" source="OuwU9BR3Q6oiOXGN5wN--16" target="OuwU9BR3Q6oiOXGN5wN--19">
          <mxGeometry relative="1" as="geometry" />
        </mxCell>
        <mxCell id="OuwU9BR3Q6oiOXGN5wN--16" value="&lt;font style=&quot;font-size: 19px;&quot;&gt;&lt;b&gt;&lt;font style=&quot;font-size: 19px;&quot;&gt;encerrar &lt;/font&gt;&lt;/b&gt;=&quot;n&quot;&lt;/font&gt;" style="rounded=1;whiteSpace=wrap;html=1;fillColor=#ffe6cc;strokeColor=#d79b00;strokeWidth=5;" vertex="1" parent="WIyWlLk6GJQsqaUBKTNV-1">
          <mxGeometry x="140" y="-4380" width="150" height="50" as="geometry" />
        </mxCell>
        <mxCell id="OuwU9BR3Q6oiOXGN5wN--109" style="edgeStyle=orthogonalEdgeStyle;rounded=0;orthogonalLoop=1;jettySize=auto;html=1;exitX=1;exitY=0.5;exitDx=0;exitDy=0;strokeWidth=3;" edge="1" parent="WIyWlLk6GJQsqaUBKTNV-1">
          <mxGeometry relative="1" as="geometry">
            <mxPoint x="341" y="-3113" as="targetPoint" />
            <mxPoint x="726" y="-4228.63" as="sourcePoint" />
            <Array as="points">
              <mxPoint x="781" y="-4229" />
              <mxPoint x="781" y="-3113" />
            </Array>
          </mxGeometry>
        </mxCell>
        <mxCell id="OuwU9BR3Q6oiOXGN5wN--112" style="edgeStyle=orthogonalEdgeStyle;rounded=0;orthogonalLoop=1;jettySize=auto;html=1;exitX=1;exitY=0.5;exitDx=0;exitDy=0;strokeWidth=3;" edge="1" parent="WIyWlLk6GJQsqaUBKTNV-1" source="OuwU9BR3Q6oiOXGN5wN--19">
          <mxGeometry relative="1" as="geometry">
            <mxPoint x="781" y="-4224.333333333333" as="targetPoint" />
          </mxGeometry>
        </mxCell>
        <mxCell id="OuwU9BR3Q6oiOXGN5wN--19" value="&lt;font style=&quot;font-size: 16px;&quot;&gt;&lt;b&gt;encerrar=&quot;n&quot;&lt;/b&gt;&lt;/font&gt;" style="rhombus;whiteSpace=wrap;html=1;fillColor=#dae8fc;strokeColor=#6c8ebf;strokeWidth=5;" vertex="1" parent="WIyWlLk6GJQsqaUBKTNV-1">
          <mxGeometry x="150" y="-4290" width="130" height="130" as="geometry" />
        </mxCell>
        <mxCell id="OuwU9BR3Q6oiOXGN5wN--37" style="edgeStyle=orthogonalEdgeStyle;rounded=0;orthogonalLoop=1;jettySize=auto;html=1;exitX=0.5;exitY=1;exitDx=0;exitDy=0;strokeWidth=3;" edge="1" parent="WIyWlLk6GJQsqaUBKTNV-1" source="OuwU9BR3Q6oiOXGN5wN--28" target="OuwU9BR3Q6oiOXGN5wN--29">
          <mxGeometry relative="1" as="geometry" />
        </mxCell>
        <mxCell id="OuwU9BR3Q6oiOXGN5wN--28" value="&lt;font style=&quot;font-size: 16px;&quot;&gt;&lt;b&gt;tipo de entrada&lt;/b&gt;&lt;/font&gt;" style="html=1;strokeWidth=5;shape=manualInput;whiteSpace=wrap;rounded=1;size=26;arcSize=11;fillColor=#b1ddf0;strokeColor=#10739e;" vertex="1" parent="WIyWlLk6GJQsqaUBKTNV-1">
          <mxGeometry x="162" y="-4130" width="128" height="77" as="geometry" />
        </mxCell>
        <mxCell id="OuwU9BR3Q6oiOXGN5wN--39" style="edgeStyle=orthogonalEdgeStyle;rounded=0;orthogonalLoop=1;jettySize=auto;html=1;exitX=0.5;exitY=1;exitDx=0;exitDy=0;entryX=0.5;entryY=0;entryDx=0;entryDy=0;strokeWidth=3;" edge="1" parent="WIyWlLk6GJQsqaUBKTNV-1" source="OuwU9BR3Q6oiOXGN5wN--29" target="OuwU9BR3Q6oiOXGN5wN--38">
          <mxGeometry relative="1" as="geometry" />
        </mxCell>
        <mxCell id="OuwU9BR3Q6oiOXGN5wN--29" value="&lt;b&gt;&lt;font style=&quot;font-size: 17px;&quot;&gt;quantidade&lt;/font&gt;&lt;/b&gt;" style="html=1;strokeWidth=5;shape=manualInput;whiteSpace=wrap;rounded=1;size=15;arcSize=16;fillColor=#b0e3e6;strokeColor=#0e8088;" vertex="1" parent="WIyWlLk6GJQsqaUBKTNV-1">
          <mxGeometry x="156.5" y="-4004" width="139" height="66" as="geometry" />
        </mxCell>
        <mxCell id="OuwU9BR3Q6oiOXGN5wN--30" style="edgeStyle=orthogonalEdgeStyle;rounded=0;orthogonalLoop=1;jettySize=auto;html=1;exitX=0.5;exitY=1;exitDx=0;exitDy=0;entryX=0.414;entryY=0.139;entryDx=0;entryDy=0;entryPerimeter=0;strokeWidth=3;" edge="1" parent="WIyWlLk6GJQsqaUBKTNV-1" source="OuwU9BR3Q6oiOXGN5wN--19" target="OuwU9BR3Q6oiOXGN5wN--28">
          <mxGeometry relative="1" as="geometry">
            <Array as="points">
              <mxPoint x="215" y="-4140" />
              <mxPoint x="215" y="-4140" />
            </Array>
          </mxGeometry>
        </mxCell>
        <mxCell id="OuwU9BR3Q6oiOXGN5wN--31" value="&lt;font style=&quot;font-size: 57px;&quot;&gt;&lt;b&gt;v&lt;/b&gt;&lt;/font&gt;" style="text;html=1;align=center;verticalAlign=middle;resizable=0;points=[];autosize=1;strokeColor=none;fillColor=none;strokeWidth=6;" vertex="1" parent="WIyWlLk6GJQsqaUBKTNV-1">
          <mxGeometry x="121" y="-4330" width="55" height="77" as="geometry" />
        </mxCell>
        <mxCell id="OuwU9BR3Q6oiOXGN5wN--36" style="edgeStyle=orthogonalEdgeStyle;rounded=0;orthogonalLoop=1;jettySize=auto;html=1;exitX=0.5;exitY=1;exitDx=0;exitDy=0;" edge="1" parent="WIyWlLk6GJQsqaUBKTNV-1" source="OuwU9BR3Q6oiOXGN5wN--29" target="OuwU9BR3Q6oiOXGN5wN--29">
          <mxGeometry relative="1" as="geometry" />
        </mxCell>
        <mxCell id="OuwU9BR3Q6oiOXGN5wN--43" style="edgeStyle=orthogonalEdgeStyle;rounded=0;orthogonalLoop=1;jettySize=auto;html=1;exitX=1;exitY=0.5;exitDx=0;exitDy=0;strokeWidth=3;" edge="1" parent="WIyWlLk6GJQsqaUBKTNV-1" source="OuwU9BR3Q6oiOXGN5wN--38">
          <mxGeometry relative="1" as="geometry">
            <mxPoint x="352" y="-3827.6666666666665" as="targetPoint" />
          </mxGeometry>
        </mxCell>
        <mxCell id="OuwU9BR3Q6oiOXGN5wN--48" style="edgeStyle=orthogonalEdgeStyle;rounded=0;orthogonalLoop=1;jettySize=auto;html=1;exitX=0.5;exitY=1;exitDx=0;exitDy=0;strokeWidth=3;" edge="1" parent="WIyWlLk6GJQsqaUBKTNV-1" source="OuwU9BR3Q6oiOXGN5wN--38">
          <mxGeometry relative="1" as="geometry">
            <mxPoint x="226.66666666666674" y="-3718" as="targetPoint" />
          </mxGeometry>
        </mxCell>
        <mxCell id="OuwU9BR3Q6oiOXGN5wN--38" value="&lt;b&gt;&lt;font style=&quot;font-size: 14px;&quot;&gt;tipo de entrada=1&lt;/font&gt;&lt;/b&gt;" style="rhombus;whiteSpace=wrap;html=1;strokeWidth=5;fillColor=#d0cee2;strokeColor=#56517e;" vertex="1" parent="WIyWlLk6GJQsqaUBKTNV-1">
          <mxGeometry x="154.5" y="-3894" width="143" height="132" as="geometry" />
        </mxCell>
        <mxCell id="OuwU9BR3Q6oiOXGN5wN--40" value="&lt;b&gt;&lt;font style=&quot;font-size: 17px;&quot;&gt;saldo=saldo + quantidade&lt;/font&gt;&lt;/b&gt;" style="rounded=1;whiteSpace=wrap;html=1;strokeWidth=5;fillColor=#b1ddf0;strokeColor=#10739e;" vertex="1" parent="WIyWlLk6GJQsqaUBKTNV-1">
          <mxGeometry x="352" y="-3866.5" width="165" height="77" as="geometry" />
        </mxCell>
        <mxCell id="OuwU9BR3Q6oiOXGN5wN--69" style="edgeStyle=orthogonalEdgeStyle;rounded=0;orthogonalLoop=1;jettySize=auto;html=1;exitX=1;exitY=0.5;exitDx=0;exitDy=0;exitPerimeter=0;entryX=1;entryY=0.182;entryDx=0;entryDy=0;entryPerimeter=0;strokeWidth=3;" edge="1" parent="WIyWlLk6GJQsqaUBKTNV-1" source="OuwU9BR3Q6oiOXGN5wN--44">
          <mxGeometry relative="1" as="geometry">
            <mxPoint x="253" y="-3755.9939999999997" as="targetPoint" />
            <Array as="points">
              <mxPoint x="746" y="-3828" />
              <mxPoint x="746" y="-3756" />
            </Array>
          </mxGeometry>
        </mxCell>
        <mxCell id="OuwU9BR3Q6oiOXGN5wN--44" value="&lt;b&gt;&lt;font style=&quot;font-size: 19px;&quot;&gt;&quot;entrada:&quot; + quantidade&lt;/font&gt;&lt;/b&gt;" style="strokeWidth=2;html=1;shape=mxgraph.flowchart.display;whiteSpace=wrap;fillColor=#fad9d5;strokeColor=#ae4132;" vertex="1" parent="WIyWlLk6GJQsqaUBKTNV-1">
          <mxGeometry x="561" y="-3872" width="165" height="88" as="geometry" />
        </mxCell>
        <mxCell id="OuwU9BR3Q6oiOXGN5wN--45" style="edgeStyle=orthogonalEdgeStyle;rounded=0;orthogonalLoop=1;jettySize=auto;html=1;exitX=1;exitY=0.5;exitDx=0;exitDy=0;entryX=0;entryY=0.5;entryDx=0;entryDy=0;entryPerimeter=0;strokeWidth=3;" edge="1" parent="WIyWlLk6GJQsqaUBKTNV-1" source="OuwU9BR3Q6oiOXGN5wN--40" target="OuwU9BR3Q6oiOXGN5wN--44">
          <mxGeometry relative="1" as="geometry" />
        </mxCell>
        <mxCell id="OuwU9BR3Q6oiOXGN5wN--46" value="&lt;font style=&quot;font-size: 63px;&quot;&gt;&lt;b&gt;v&lt;/b&gt;&lt;/font&gt;" style="text;html=1;align=center;verticalAlign=middle;resizable=0;points=[];autosize=1;strokeColor=none;fillColor=none;" vertex="1" parent="WIyWlLk6GJQsqaUBKTNV-1">
          <mxGeometry x="295.5" y="-3916" width="55" height="88" as="geometry" />
        </mxCell>
        <mxCell id="OuwU9BR3Q6oiOXGN5wN--70" style="edgeStyle=orthogonalEdgeStyle;rounded=0;orthogonalLoop=1;jettySize=auto;html=1;exitX=1;exitY=0.5;exitDx=0;exitDy=0;entryX=0;entryY=0.5;entryDx=0;entryDy=0;strokeWidth=3;" edge="1" parent="WIyWlLk6GJQsqaUBKTNV-1" source="OuwU9BR3Q6oiOXGN5wN--47" target="OuwU9BR3Q6oiOXGN5wN--53">
          <mxGeometry relative="1" as="geometry" />
        </mxCell>
        <mxCell id="OuwU9BR3Q6oiOXGN5wN--94" style="edgeStyle=orthogonalEdgeStyle;rounded=0;orthogonalLoop=1;jettySize=auto;html=1;exitX=0.5;exitY=1;exitDx=0;exitDy=0;strokeWidth=3;" edge="1" parent="WIyWlLk6GJQsqaUBKTNV-1" source="OuwU9BR3Q6oiOXGN5wN--47">
          <mxGeometry relative="1" as="geometry">
            <mxPoint x="226.66666666666674" y="-3421" as="targetPoint" />
          </mxGeometry>
        </mxCell>
        <mxCell id="OuwU9BR3Q6oiOXGN5wN--47" value="&lt;b&gt;&lt;font style=&quot;font-size: 14px;&quot;&gt;tipo de entrada=2&lt;/font&gt;&lt;/b&gt;" style="rhombus;whiteSpace=wrap;html=1;strokeWidth=5;fillColor=#d0cee2;strokeColor=#56517e;" vertex="1" parent="WIyWlLk6GJQsqaUBKTNV-1">
          <mxGeometry x="154.5" y="-3718" width="143" height="132" as="geometry" />
        </mxCell>
        <mxCell id="OuwU9BR3Q6oiOXGN5wN--52" value="&lt;span style=&quot;font-size: 62px;&quot;&gt;&lt;b&gt;f&lt;/b&gt;&lt;/span&gt;" style="text;html=1;align=center;verticalAlign=middle;resizable=0;points=[];autosize=1;strokeColor=none;fillColor=none;" vertex="1" parent="WIyWlLk6GJQsqaUBKTNV-1">
          <mxGeometry x="156.5" y="-3784" width="44" height="88" as="geometry" />
        </mxCell>
        <mxCell id="OuwU9BR3Q6oiOXGN5wN--74" style="edgeStyle=orthogonalEdgeStyle;rounded=0;orthogonalLoop=1;jettySize=auto;html=1;exitX=1;exitY=0.5;exitDx=0;exitDy=0;entryX=0;entryY=0.5;entryDx=0;entryDy=0;strokeWidth=3;" edge="1" parent="WIyWlLk6GJQsqaUBKTNV-1" source="OuwU9BR3Q6oiOXGN5wN--53" target="OuwU9BR3Q6oiOXGN5wN--73">
          <mxGeometry relative="1" as="geometry" />
        </mxCell>
        <mxCell id="OuwU9BR3Q6oiOXGN5wN--83" style="edgeStyle=orthogonalEdgeStyle;rounded=0;orthogonalLoop=1;jettySize=auto;html=1;exitX=0.5;exitY=1;exitDx=0;exitDy=0;strokeWidth=3;" edge="1" parent="WIyWlLk6GJQsqaUBKTNV-1" source="OuwU9BR3Q6oiOXGN5wN--53">
          <mxGeometry relative="1" as="geometry">
            <mxPoint x="435" y="-3542" as="targetPoint" />
          </mxGeometry>
        </mxCell>
        <mxCell id="OuwU9BR3Q6oiOXGN5wN--53" value="&lt;b style=&quot;&quot;&gt;&lt;font style=&quot;font-size: 14px;&quot;&gt;saldo&amp;gt;=quantidade&lt;/font&gt;&lt;/b&gt;" style="rhombus;whiteSpace=wrap;html=1;strokeWidth=5;fillColor=#d0cee2;strokeColor=#56517e;" vertex="1" parent="WIyWlLk6GJQsqaUBKTNV-1">
          <mxGeometry x="363" y="-3718" width="143" height="132" as="geometry" />
        </mxCell>
        <mxCell id="OuwU9BR3Q6oiOXGN5wN--72" value="&lt;font style=&quot;font-size: 63px;&quot;&gt;&lt;b&gt;v&lt;/b&gt;&lt;/font&gt;" style="text;html=1;align=center;verticalAlign=middle;resizable=0;points=[];autosize=1;strokeColor=none;fillColor=none;" vertex="1" parent="WIyWlLk6GJQsqaUBKTNV-1">
          <mxGeometry x="297.5" y="-3729" width="55" height="88" as="geometry" />
        </mxCell>
        <mxCell id="OuwU9BR3Q6oiOXGN5wN--89" style="edgeStyle=orthogonalEdgeStyle;rounded=0;orthogonalLoop=1;jettySize=auto;html=1;exitX=0.5;exitY=1;exitDx=0;exitDy=0;strokeWidth=3;" edge="1" parent="WIyWlLk6GJQsqaUBKTNV-1" source="OuwU9BR3Q6oiOXGN5wN--73">
          <mxGeometry relative="1" as="geometry">
            <mxPoint x="643.3333333333335" y="-3564" as="targetPoint" />
          </mxGeometry>
        </mxCell>
        <mxCell id="OuwU9BR3Q6oiOXGN5wN--73" value="&lt;b&gt;&lt;font style=&quot;font-size: 17px;&quot;&gt;saldo=saldo -quantidade&lt;/font&gt;&lt;/b&gt;" style="rounded=1;whiteSpace=wrap;html=1;strokeWidth=5;fillColor=#b1ddf0;strokeColor=#10739e;" vertex="1" parent="WIyWlLk6GJQsqaUBKTNV-1">
          <mxGeometry x="561" y="-3693.25" width="165" height="85.25" as="geometry" />
        </mxCell>
        <mxCell id="OuwU9BR3Q6oiOXGN5wN--75" value="&lt;font style=&quot;font-size: 63px;&quot;&gt;&lt;b&gt;v&lt;/b&gt;&lt;/font&gt;" style="text;html=1;align=center;verticalAlign=middle;resizable=0;points=[];autosize=1;strokeColor=none;fillColor=none;" vertex="1" parent="WIyWlLk6GJQsqaUBKTNV-1">
          <mxGeometry x="495" y="-3729" width="55" height="88" as="geometry" />
        </mxCell>
        <mxCell id="OuwU9BR3Q6oiOXGN5wN--95" style="edgeStyle=orthogonalEdgeStyle;rounded=0;orthogonalLoop=1;jettySize=auto;html=1;exitX=0.5;exitY=1;exitDx=0;exitDy=0;exitPerimeter=0;strokeWidth=3;" edge="1" parent="WIyWlLk6GJQsqaUBKTNV-1" source="OuwU9BR3Q6oiOXGN5wN--76">
          <mxGeometry relative="1" as="geometry">
            <mxPoint x="242" y="-3434" as="targetPoint" />
            <Array as="points">
              <mxPoint x="428" y="-3434" />
              <mxPoint x="242" y="-3434" />
            </Array>
          </mxGeometry>
        </mxCell>
        <mxCell id="OuwU9BR3Q6oiOXGN5wN--76" value="&lt;span style=&quot;font-size: 19px;&quot;&gt;&lt;b&gt;&quot;saldo insuficiente&quot;&lt;/b&gt;&lt;/span&gt;" style="strokeWidth=5;html=1;shape=mxgraph.flowchart.display;whiteSpace=wrap;fillColor=#fad9d5;strokeColor=#ae4132;" vertex="1" parent="WIyWlLk6GJQsqaUBKTNV-1">
          <mxGeometry x="345" y="-3542" width="165" height="88" as="geometry" />
        </mxCell>
        <mxCell id="OuwU9BR3Q6oiOXGN5wN--77" value="&lt;b&gt;&lt;font style=&quot;font-size: 19px;&quot;&gt;&quot;saida:&quot; + quantidade&lt;/font&gt;&lt;/b&gt;" style="strokeWidth=5;html=1;shape=mxgraph.flowchart.display;whiteSpace=wrap;fillColor=#fad9d5;strokeColor=#ae4132;" vertex="1" parent="WIyWlLk6GJQsqaUBKTNV-1">
          <mxGeometry x="550" y="-3542" width="165" height="88" as="geometry" />
        </mxCell>
        <mxCell id="OuwU9BR3Q6oiOXGN5wN--90" value="&lt;span style=&quot;font-size: 62px;&quot;&gt;&lt;b&gt;f&lt;/b&gt;&lt;/span&gt;" style="text;html=1;align=center;verticalAlign=middle;resizable=0;points=[];autosize=1;strokeColor=none;fillColor=none;" vertex="1" parent="WIyWlLk6GJQsqaUBKTNV-1">
          <mxGeometry x="363" y="-3619" width="44" height="88" as="geometry" />
        </mxCell>
        <mxCell id="OuwU9BR3Q6oiOXGN5wN--91" value="&lt;span style=&quot;font-size: 19px;&quot;&gt;&lt;b&gt;&quot;saldo insuficiente&quot;&lt;/b&gt;&lt;/span&gt;" style="strokeWidth=5;html=1;shape=mxgraph.flowchart.display;whiteSpace=wrap;fillColor=#fad9d5;strokeColor=#ae4132;" vertex="1" parent="WIyWlLk6GJQsqaUBKTNV-1">
          <mxGeometry x="140" y="-3410" width="165" height="88" as="geometry" />
        </mxCell>
        <mxCell id="OuwU9BR3Q6oiOXGN5wN--100" style="edgeStyle=orthogonalEdgeStyle;rounded=0;orthogonalLoop=1;jettySize=auto;html=1;strokeWidth=3;" edge="1" parent="WIyWlLk6GJQsqaUBKTNV-1" source="OuwU9BR3Q6oiOXGN5wN--77">
          <mxGeometry relative="1" as="geometry">
            <mxPoint x="242" y="-3423" as="targetPoint" />
            <mxPoint x="649" y="-3443" as="sourcePoint" />
            <Array as="points">
              <mxPoint x="649" y="-3423" />
            </Array>
          </mxGeometry>
        </mxCell>
        <mxCell id="OuwU9BR3Q6oiOXGN5wN--101" value="&lt;span style=&quot;font-size: 62px;&quot;&gt;&lt;b&gt;f&lt;/b&gt;&lt;/span&gt;" style="text;html=1;align=center;verticalAlign=middle;resizable=0;points=[];autosize=1;strokeColor=none;fillColor=none;" vertex="1" parent="WIyWlLk6GJQsqaUBKTNV-1">
          <mxGeometry x="167.5" y="-3564" width="44" height="88" as="geometry" />
        </mxCell>
        <mxCell id="OuwU9BR3Q6oiOXGN5wN--106" style="edgeStyle=orthogonalEdgeStyle;rounded=0;orthogonalLoop=1;jettySize=auto;html=1;exitX=0;exitY=0.75;exitDx=0;exitDy=0;entryX=0;entryY=0.5;entryDx=0;entryDy=0;strokeWidth=3;" edge="1" parent="WIyWlLk6GJQsqaUBKTNV-1" source="OuwU9BR3Q6oiOXGN5wN--102" target="OuwU9BR3Q6oiOXGN5wN--19">
          <mxGeometry relative="1" as="geometry">
            <mxPoint x="121" y="-4224" as="targetPoint" />
            <Array as="points">
              <mxPoint x="122" y="-3215" />
              <mxPoint x="122" y="-4224" />
              <mxPoint x="150" y="-4224" />
            </Array>
          </mxGeometry>
        </mxCell>
        <mxCell id="OuwU9BR3Q6oiOXGN5wN--102" value="&lt;font style=&quot;font-size: 19px;&quot;&gt;&lt;b&gt;encerrar ? (s/n)&lt;/b&gt;&lt;/font&gt;" style="html=1;strokeWidth=2;shape=manualInput;whiteSpace=wrap;rounded=1;size=44;arcSize=11;fillColor=#b1ddf0;strokeColor=#10739e;" vertex="1" parent="WIyWlLk6GJQsqaUBKTNV-1">
          <mxGeometry x="150" y="-3289" width="151" height="99" as="geometry" />
        </mxCell>
        <mxCell id="OuwU9BR3Q6oiOXGN5wN--110" style="edgeStyle=orthogonalEdgeStyle;rounded=0;orthogonalLoop=1;jettySize=auto;html=1;exitX=0.5;exitY=1;exitDx=0;exitDy=0;exitPerimeter=0;strokeWidth=3;" edge="1" parent="WIyWlLk6GJQsqaUBKTNV-1" source="OuwU9BR3Q6oiOXGN5wN--108">
          <mxGeometry relative="1" as="geometry">
            <mxPoint x="240" y="-2981" as="targetPoint" />
          </mxGeometry>
        </mxCell>
        <mxCell id="OuwU9BR3Q6oiOXGN5wN--108" value="&lt;span style=&quot;font-size: 19px;&quot;&gt;&lt;b&gt;&quot;sistema encerrado&amp;nbsp;&lt;/b&gt;&lt;/span&gt;" style="strokeWidth=5;html=1;shape=mxgraph.flowchart.display;whiteSpace=wrap;fillColor=#fad9d5;strokeColor=#ae4132;" vertex="1" parent="WIyWlLk6GJQsqaUBKTNV-1">
          <mxGeometry x="150" y="-3157" width="180" height="110" as="geometry" />
        </mxCell>
        <mxCell id="OuwU9BR3Q6oiOXGN5wN--111" value="&lt;font style=&quot;font-size: 23px;&quot;&gt;&lt;b&gt;Fim&lt;/b&gt;&lt;/font&gt;" style="rounded=1;whiteSpace=wrap;html=1;arcSize=50;strokeWidth=5;fillColor=#b0e3e6;strokeColor=#0e8088;" vertex="1" parent="WIyWlLk6GJQsqaUBKTNV-1">
          <mxGeometry x="166" y="-2970" width="142" height="60" as="geometry" />
        </mxCell>
      </root>
    </mxGraphModel>
  </diagram>
</mxfile>
